# xmcd
#
# Track frame offsets:
# 150
# 12933
# 28152
# 45306
# 57788
# 73016
# 88211
# 105458
# 120787
# 136668
#
# Disc length: 2064 seconds
#
# Revision: 1
# Processed by: cddbd v1.4PL0 Copyright (c) Steve Scherf et al.
# Submitted via: CedeCatalogueitor 2.5 http://usuarios.lycos.es/kakasboy
#
DISCID=75080e0a
DTITLE=Thalia - Colección Platino
DYEAR=1998
DGENRE=
TTITLE0=Maria Mercedes
TTITLE1=Marimar
TTITLE2=Talisman
TTITLE3=En la intimidad
TTITLE4=Un pacto entre los dos
TTITLE5=Pienso en ti
TTITLE6=El bombo de tu corazón
TTITLE7=El poder del amor
TTITLE8=Amarillo Azul
TTITLE9=Mundo De Cristal
EXTD=
EXTT0=
EXTT1=
EXTT2=
EXTT3=
EXTT4=
EXTT5=
EXTT6=
EXTT7=
EXTT8=
EXTT9=
PLAYORDER=
